<?xml version="1.0" encoding="UTF-8"?>
<svg id="Layer_2" data-name="Layer 2" xmlns="http://www.w3.org/2000/svg" viewBox="0 0 401.87 192.36">
  <defs>
    <style>
      .cls-1 {
        fill: #0b49f5;
        stroke-width: 0px;
      }
    </style>
  </defs>
  <g id="Layer_1-2" data-name="Layer 1">
    <path class="cls-1" d="m0,103.37v-15.9c1.33-.4.92-1.56,1.04-2.46C6.55,43.35,34.06,12.87,74.96,2.88c4.57-1.12,9.4-.92,13.78-2.88h1c11.92.82,23.85.6,35.79.59,60.63-.08,121.27.12,181.9.26,7.82.02,15.58.86,23.18,2.79,39.67,10.05,84.78,55.77,67.46,118.83-9.81,35.71-40.08,68.32-92.91,69.02-35.04.47-70.08.31-105.12.72-33.22.39-66.44-.12-99.67-.22-5.65-.02-11.26-.31-16.88-.99C43.66,186.15,11,156.21,2.78,117.1c-.96-4.57-.57-9.42-2.78-13.74Zm371.18-3.85c-.35-3.46-.68-7.58-1.2-11.68-5.28-41.5-48.19-67.33-87.5-52.78-3.48,1.29-3.83,2.51-1.89,5.67,22.38,36.44,23.58,73.06.57,109.77-2.82,4.49-2.58,5.42,2.35,7,23.24,7.44,44.7,4.05,63.66-11.43,14.43-11.78,24.06-26.38,24.02-46.55Zm-306.23-18.01c8.97,0,17.95.21,26.92-.09,4.77-.16,6.83,1.46,6.36,6.26-.56,5.78-.56,11.57,0,17.35.46,4.77-1.59,6.42-6.33,6.37-17.77-.18-35.55.04-53.33-.16-4.3-.05-5.32.73-3.98,5.15,10.49,34.38,50.12,53.37,83.72,39.93q7.94-3.18,3.66-10.33c-10.15-16.93-15.01-35.16-13.81-54.94,1.07-17.55,6.26-33.74,16.11-48.35,1.76-2.61,1.46-3.66-1.42-5.02-37.06-17.39-76.92,3.19-88.85,40.42-.79,2.46-.44,3.51,2.54,3.46,9.47-.16,18.94-.06,28.41-.06Zm135.31,79.68c8.06.04,15.28-1.74,22.36-4.19q5.55-1.92,2.49-7.09c-12.81-21.57-19.2-44.5-14.76-69.7,2.5-14.2,8.18-27.13,15.84-39.27,1.07-1.7,2.38-3.08-.74-4.45-15.89-6.98-31.73-7.39-47.7-.38-3.69,1.62-4.06,3.8-1.75,6.96,3.43,4.68,6.38,9.71,8.41,15.13,11.73,31.26,10.56,61.46-7.86,90.13-3.28,5.11-3.12,5.84,2.48,8.34,6.9,3.07,14.12,4.71,21.22,4.49Zm66.22-69.81c.03-7.07-3-18.72-10.17-29.13-3.28-4.76-3.6-4.83-6.47-.07-13.87,23.02-12.82,46,.38,68.9,1.75,3.04,3.49,3.2,5.43.17,6.74-10.5,10.91-21.81,10.83-39.87Zm-117.25-29.94c-7.1,8.93-10.21,18.83-10.95,29.57-.9,13.01,1.09,25.38,8.41,36.53,1.87,2.85,3.14,3.74,5.23-.09,5.46-9.95,8.37-20.55,8.22-31.8-.16-12.26-3.2-23.78-10.92-34.22Z"/>
  </g>
</svg>