<svg width="140" height="31" viewBox="0 0 140 31" fill="none" xmlns="http://www.w3.org/2000/svg">
<path d="M22.966 4.89355H5.41797V20.9607H22.966V4.89355Z" fill="#1E1E1E"/>
<path fill-rule="evenodd" clip-rule="evenodd" d="M28.4022 14.2968C28.4022 22.1927 22.0442 28.5935 14.2011 28.5935C6.35804 28.5935 0 22.1927 0 14.2968C0 6.40087 6.35804 0 14.2011 0C22.0442 0 28.4022 6.40087 28.4022 14.2968ZM10.1769 19.9861H7.42087C6.84175 19.9861 6.55568 19.9861 6.38126 19.8738C6.19286 19.7508 6.07774 19.5471 6.06379 19.3223C6.05331 19.1152 6.19636 18.8622 6.48243 18.3565L13.2874 6.28096C13.577 5.76818 13.7235 5.51179 13.9084 5.41697C14.1072 5.31512 14.3445 5.31512 14.5433 5.41697C14.7282 5.51179 14.8748 5.76818 15.1643 6.28096L16.5633 8.73947L16.5704 8.75201C16.8831 9.30212 17.0417 9.58109 17.111 9.87388C17.1877 10.1935 17.1877 10.5307 17.111 10.8503C17.0412 11.1453 16.8842 11.4263 16.5667 11.9847L12.9923 18.346L12.983 18.3622C12.6682 18.9169 12.5087 19.198 12.2875 19.4101C12.0468 19.6419 11.7573 19.8104 11.4398 19.9054C11.1502 19.9861 10.8258 19.9861 10.1769 19.9861ZM17.1368 19.9861H21.0859C21.6685 19.9861 21.9616 19.9861 22.1361 19.8704C22.3244 19.7474 22.443 19.5401 22.4536 19.3155C22.4636 19.115 22.3237 18.8719 22.0495 18.3955C22.04 18.3793 22.0306 18.3628 22.0209 18.346L20.0428 14.9393L20.0203 14.9009C19.7423 14.4277 19.602 14.1887 19.4218 14.0963C19.2231 13.9945 18.9892 13.9945 18.7904 14.0963C18.609 14.1912 18.4625 14.4405 18.1729 14.9428L16.2018 18.3495L16.1951 18.3613C15.9065 18.8627 15.7623 19.1133 15.7727 19.3189C15.7867 19.5437 15.9018 19.7508 16.0902 19.8738C16.2611 19.9861 16.5542 19.9861 17.1368 19.9861Z" fill="white"/>
<path d="M43.946 16.554L41.768 11.01L39.572 16.554H43.946ZM48.122 21.846H46.034L44.666 18.408H38.834L37.448 21.846H35.378L40.85 8.418H42.812L48.122 21.846ZM57.3393 12.054L53.9193 21.774H52.1373L48.8433 12.054H50.8053L53.0733 19.128L55.4133 12.054H57.3393ZM64.3375 21.864V20.91C63.7495 21.678 62.9035 22.062 61.7995 22.062C60.5995 22.062 59.7115 21.726 59.1355 21.054C58.7275 20.562 58.5235 19.962 58.5235 19.254C58.5235 16.806 60.3235 15.582 63.9235 15.582H64.1935V15.258C64.1935 14.082 63.6475 13.494 62.5555 13.494C61.5715 13.494 60.5995 13.752 59.6395 14.268V12.504C60.5515 12.036 61.5595 11.802 62.6635 11.802C63.8155 11.802 64.6555 12.072 65.1835 12.612C65.7475 13.2 66.0295 14.112 66.0295 15.348V19.542C66.0295 20.646 66.0655 21.42 66.1375 21.864H64.3375ZM64.1935 17.256H63.8155C62.8795 17.256 62.1595 17.34 61.6555 17.508C60.8515 17.772 60.4495 18.294 60.4495 19.074C60.4495 19.938 60.9475 20.37 61.9435 20.37C63.4435 20.37 64.1935 19.458 64.1935 17.634V17.256ZM70.7621 21.774H68.8001V7.446H70.7621V21.774ZM78.6461 21.864V20.91C78.0581 21.678 77.2121 22.062 76.1081 22.062C74.9081 22.062 74.0201 21.726 73.4441 21.054C73.0361 20.562 72.8321 19.962 72.8321 19.254C72.8321 16.806 74.6321 15.582 78.2321 15.582H78.5021V15.258C78.5021 14.082 77.9561 13.494 76.8641 13.494C75.8801 13.494 74.9081 13.752 73.9481 14.268V12.504C74.8601 12.036 75.8681 11.802 76.9721 11.802C78.1241 11.802 78.9641 12.072 79.4921 12.612C80.0561 13.2 80.3381 14.112 80.3381 15.348V19.542C80.3381 20.646 80.3741 21.42 80.4461 21.864H78.6461ZM78.5021 17.256H78.1241C77.1881 17.256 76.4681 17.34 75.9641 17.508C75.1601 17.772 74.7581 18.294 74.7581 19.074C74.7581 19.938 75.2561 20.37 76.2521 20.37C77.7521 20.37 78.5021 19.458 78.5021 17.634V17.256ZM91.0827 21.846H89.2107V15.816C89.2107 14.268 88.6467 13.494 87.5187 13.494C86.7507 13.494 86.1687 13.8 85.7727 14.412C85.4487 14.94 85.2867 15.618 85.2867 16.446V21.846H83.4147V14.52C83.4147 14.052 83.4027 13.614 83.3787 13.206C83.3667 12.786 83.3487 12.39 83.3247 12.018H85.1247V13.008C85.7127 12.204 86.5827 11.802 87.7347 11.802C89.9667 11.802 91.0827 13.044 91.0827 15.528V21.846ZM100.829 21.684C100.157 21.9 99.2987 22.008 98.2547 22.008C96.7787 22.008 95.6147 21.492 94.7627 20.46C93.9947 19.536 93.6107 18.354 93.6107 16.914C93.6107 15.438 94.0547 14.22 94.9427 13.26C95.8427 12.312 96.9767 11.838 98.3447 11.838C99.2567 11.838 100.085 11.964 100.829 12.216L100.685 13.962C99.9767 13.674 99.2387 13.53 98.4707 13.53C97.5347 13.53 96.8027 13.842 96.2747 14.466C95.7587 15.078 95.5007 15.894 95.5007 16.914C95.5007 17.874 95.7647 18.684 96.2927 19.344C96.8087 19.992 97.4927 20.316 98.3447 20.316C99.1247 20.316 99.9047 20.172 100.685 19.884L100.829 21.684ZM110.789 21.774H108.863V16.014C108.863 15.138 108.761 14.508 108.557 14.124C108.281 13.668 107.801 13.44 107.117 13.44C106.361 13.44 105.779 13.752 105.371 14.376C105.023 14.94 104.849 15.648 104.849 16.5V21.774H102.923V7.446H104.849V12.864C105.089 12.468 105.437 12.168 105.893 11.964C106.337 11.748 106.811 11.64 107.315 11.64C108.575 11.64 109.481 12.024 110.033 12.792C110.537 13.476 110.789 14.526 110.789 15.942V21.774ZM121.273 17.616H115.207C115.243 18.48 115.477 19.152 115.909 19.632C116.353 20.148 116.965 20.406 117.745 20.406C118.825 20.406 119.779 20.172 120.607 19.704V21.522C119.647 21.882 118.675 22.062 117.691 22.062C116.143 22.062 114.991 21.57 114.235 20.586C113.575 19.71 113.245 18.486 113.245 16.914C113.245 15.402 113.611 14.172 114.343 13.224C115.075 12.276 116.059 11.802 117.295 11.802C118.675 11.802 119.707 12.294 120.391 13.278C120.979 14.118 121.273 15.228 121.273 16.608V17.616ZM119.311 15.906C119.311 15.234 119.137 14.67 118.789 14.214C118.429 13.734 117.955 13.494 117.367 13.494C116.767 13.494 116.257 13.74 115.837 14.232C115.417 14.724 115.207 15.282 115.207 15.906H119.311Z" fill="white"/>
</svg>
