<svg width="110" height="23" viewBox="0 0 110 23" fill="none" xmlns="http://www.w3.org/2000/svg">
<path d="M22.6311 14.2608C21.1046 20.4162 14.8772 24.1685 8.72152 22.642C2.56614 21.1159 -1.18614 14.8881 0.340299 8.73276C1.86674 2.57713 8.0942 -1.17542 14.2496 0.351024C14.2599 0.353608 14.2705 0.356192 14.2808 0.359034C20.4199 1.89969 24.1549 8.11733 22.6311 14.2608Z" fill="#E2E8F0"/>
<path d="M14.0907 9.82472C13.7318 11.2602 11.5429 10.5244 10.8324 10.3487L11.4602 7.83683C12.1599 8.00916 14.4496 8.3391 14.0798 9.82472H14.0907ZM13.6995 13.8837C13.312 15.4479 10.6782 14.6014 9.824 14.3893L10.5164 11.6155C11.3706 11.8307 14.1049 12.2505 13.6995 13.8837ZM16.5703 9.84642C16.7963 8.31765 15.6337 7.49604 14.0584 6.95062L14.5751 4.88006L13.3014 4.56433L12.7991 6.58116C12.4689 6.49874 12.1281 6.41968 11.7907 6.34423L12.293 4.30596L11.0334 3.99023L10.5167 6.0608L9.7129 5.88149L7.97253 5.44718L7.63872 6.79302C7.63872 6.79302 8.57169 7.00824 8.55386 7.02271C8.91015 7.06585 9.17007 7.38236 9.14242 7.74045L8.55386 10.0981C8.59804 10.1081 8.64145 10.1224 8.68304 10.1412L8.55024 10.1053L7.72837 13.4104C7.65138 13.6522 7.39301 13.7852 7.15092 13.7083C7.15092 13.7261 6.2319 13.4822 6.2319 13.4822L5.60742 14.9177L7.24729 15.3233L8.14434 15.5566L7.62399 17.6486L8.88354 17.9644L9.40027 15.8938C9.73977 15.9871 10.0738 16.0731 10.4015 16.1522L9.89195 18.23L11.1515 18.5421L11.6719 16.4537C13.8248 16.8596 15.436 16.6976 16.1179 14.7528C16.6669 13.1882 16.0892 12.2875 14.9588 11.6989C15.784 11.5088 16.3946 10.9804 16.5703 9.84642Z" fill="#1E1E1E"/>
<path d="M29.8978 19.3774C30.5685 19.3795 31.2284 19.2087 31.8141 18.8821C32.4169 18.5607 32.947 18.1181 33.3715 17.583C33.8139 17.0172 34.1616 16.3834 34.4014 15.7062C34.6543 15.0066 34.7828 14.2684 34.7817 13.5246C34.822 12.7699 34.6608 12.018 34.3151 11.3463C34.0066 10.8259 33.4323 10.5606 32.5998 10.5606C32.237 10.573 31.8764 10.6223 31.5232 10.7076C31.0847 10.8055 30.6791 11.0158 30.346 11.3176L28.4442 19.2696L28.7493 19.327C28.84 19.3492 28.9328 19.3637 29.0255 19.3702C29.1446 19.3849 29.2645 19.3908 29.3844 19.388L29.8975 19.3771L29.8978 19.3774ZM33.6764 6.94702C34.5071 6.9279 35.3318 7.09739 36.0878 7.44231C36.744 7.75519 37.3207 8.21276 37.7744 8.78092C38.239 9.36845 38.5805 10.043 38.7792 10.7652C38.9967 11.5615 39.104 12.3836 39.0985 13.2091C39.0975 15.7773 38.102 18.245 36.3211 20.0954C35.4576 20.9811 34.4303 21.69 33.2961 22.1838C32.1068 22.7072 30.8204 22.9741 29.5211 22.9661H28.6023C28.1029 22.9499 27.6042 22.907 27.1095 22.8369C26.5051 22.7494 25.9062 22.6297 25.3154 22.4781C24.6958 22.3311 24.0943 22.1169 23.5212 21.8394L28.563 0.717748L33.0667 0L31.2726 7.49631C31.6462 7.32733 32.034 7.19169 32.4316 7.09093C32.8414 6.9912 33.2623 6.94159 33.6839 6.94391L33.6767 6.94753L33.6764 6.94702Z" fill="#E2E8F0"/>
<path d="M45.8448 5.40761C45.2578 5.41329 44.6855 5.2252 44.2155 4.87304C43.7174 4.47903 43.4481 3.86282 43.4978 3.22956C43.4957 2.83451 43.5799 2.4436 43.7453 2.08473C43.9037 1.73516 44.1261 1.41865 44.402 1.15176C44.6777 0.889774 44.9971 0.678428 45.3459 0.527282C45.7086 0.371486 46.0995 0.292167 46.4941 0.293976C47.0769 0.292167 47.6438 0.481293 48.1089 0.832157C48.606 1.22694 48.8749 1.84264 48.8266 2.47564C48.8297 2.87172 48.7465 3.26366 48.5827 3.62383C48.4243 3.97159 48.2029 4.28655 47.9295 4.55318C47.6546 4.8162 47.3353 5.02755 46.9857 5.17766C46.623 5.33346 46.2321 5.41174 45.8375 5.40735H45.8448V5.40761ZM43.7528 22.5571H39.4465L43.0851 7.26993H47.4164L43.7525 22.5571H43.7528Z" fill="#E2E8F0"/>
<path d="M51.1843 3.46265L55.6877 2.7666L54.5682 7.27023H59.3914L58.5225 10.8156H53.739L52.4617 16.148C52.3511 16.5563 52.2826 16.9748 52.257 17.3972C52.2307 17.7388 52.2813 18.0819 52.4041 18.4015C52.5242 18.6883 52.7467 18.9201 53.0285 19.0511C53.4342 19.2304 53.877 19.312 54.3204 19.288C54.7746 19.2895 55.2278 19.2448 55.6732 19.1552C56.1215 19.0676 56.563 18.9477 56.9937 18.7963L57.3167 22.112C56.6984 22.3341 56.0667 22.5178 55.4254 22.661C54.633 22.8292 53.824 22.9075 53.0141 22.8943C51.6755 22.8943 50.642 22.6933 49.9028 22.2985C49.2114 21.9469 48.6575 21.3733 48.3311 20.6692C48.0126 19.9223 47.8736 19.111 47.9258 18.3008C47.9741 17.3502 48.1097 16.4061 48.3311 15.4801L51.184 3.44818V3.46265H51.1843Z" fill="#E2E8F0"/>
<path d="M59.2332 16.4529C59.2242 15.1848 59.4402 13.9245 59.8719 12.7319C60.2768 11.6041 60.8987 10.5668 61.7019 9.67823C62.5119 8.79694 63.4968 8.09547 64.5941 7.618C65.7909 7.10127 67.0835 6.84315 68.387 6.86124C69.1739 6.85194 69.9594 6.93488 70.7267 7.1085C71.3719 7.26145 71.9995 7.48029 72.5999 7.76166L71.1037 11.1241C70.7161 10.9662 70.3141 10.8303 69.8979 10.7042C69.4016 10.566 68.8877 10.5019 68.3727 10.5141C67.0716 10.467 65.8201 11.0171 64.9744 12.0069C64.1347 12.9947 63.7133 14.3224 63.7113 15.9902C63.6717 16.8361 63.895 17.6732 64.3499 18.3876C64.7755 18.9976 65.5607 19.3022 66.7039 19.3022C67.2519 19.3027 67.7981 19.2438 68.3332 19.1265C68.8104 19.0247 69.2781 18.8795 69.7292 18.6922L70.0485 22.1518C69.4615 22.374 68.8626 22.5633 68.2544 22.7184C67.4821 22.8925 66.6921 22.9747 65.9004 22.9628C64.8496 22.9933 63.8038 22.8163 62.8214 22.4422C62.0406 22.1275 61.3376 21.6464 60.7617 21.0322C60.2153 20.437 59.8114 19.7249 59.5812 18.9506C59.3376 18.1357 59.2167 17.289 59.2224 16.4387L59.2332 16.4532V16.4529Z" fill="#E2E8F0"/>
<path d="M80.4803 10.5286C79.8731 10.5201 79.2797 10.7131 78.7937 11.0777C78.301 11.459 77.8876 11.9336 77.5773 12.4736C77.236 13.0485 76.9797 13.6701 76.8166 14.3186C76.6588 14.9403 76.5766 15.5784 76.5727 16.22C76.534 17.0031 76.6934 17.7828 77.0357 18.4879C77.3481 19.0297 77.9077 19.3026 78.7224 19.3026C79.3306 19.3129 79.9248 19.1183 80.409 18.7499C80.9027 18.3686 81.3169 17.8939 81.629 17.3545C81.9654 16.7788 82.2155 16.1574 82.3721 15.5095C82.5281 14.8865 82.6103 14.2468 82.6157 13.604C82.656 12.8214 82.4961 12.0409 82.1527 11.336C81.8406 10.7978 81.2771 10.525 80.4661 10.525L80.4806 10.5286H80.4803ZM78.3273 22.9662C77.413 22.9874 76.5038 22.8288 75.6504 22.4996C74.9324 22.2164 74.2911 21.7695 73.7772 21.1933C73.2718 20.613 72.8912 19.9353 72.6577 19.2018C72.404 18.3794 72.2825 17.5216 72.2988 16.6613C72.3016 15.4764 72.4916 14.299 72.8626 13.1733C73.2225 12.0403 73.7844 10.9818 74.52 10.0478C75.2589 9.11405 76.178 8.33791 77.222 7.76563C78.3459 7.1613 79.6062 6.85591 80.8823 6.87916C81.7913 6.86263 82.6956 7.02127 83.5451 7.34578C84.2639 7.6243 84.9087 8.06534 85.4288 8.63401C85.9311 9.21585 86.3109 9.89329 86.545 10.6255C86.8005 11.4487 86.9217 12.3077 86.9039 13.1697C86.9003 14.3535 86.715 15.5301 86.3548 16.6576C86.0011 17.7921 85.4495 18.8548 84.7256 19.7976C83.9975 20.7352 83.0821 21.5114 82.0378 22.0764C80.8965 22.6838 79.6199 22.9903 78.3273 22.9662Z" fill="#E2E8F0"/>
<path d="M93.7039 5.40768C93.118 5.41388 92.5462 5.22579 92.0785 4.87312C91.5801 4.4791 91.3109 3.86289 91.3608 3.22963C91.3587 2.83459 91.4429 2.44368 91.608 2.0848C91.762 1.73704 91.9783 1.42105 92.2467 1.15183C92.5242 0.890621 92.8446 0.679276 93.1942 0.527355C93.5559 0.371817 93.9455 0.292498 94.3393 0.294048C94.9263 0.288881 95.4996 0.478523 95.9685 0.83223C96.4656 1.22702 96.7343 1.84271 96.6863 2.47571C96.6871 2.87231 96.6013 3.26425 96.4346 3.6239C96.2791 3.97193 96.0585 4.28739 95.7854 4.55325C95.5105 4.81627 95.1911 5.02762 94.8415 5.17773C94.4819 5.33198 94.0948 5.41026 93.7037 5.40742L93.7039 5.40768ZM91.6158 22.5572H87.3096L90.9412 7.27H95.2761L91.6158 22.5572Z" fill="#E2E8F0"/>
<path d="M98.3762 7.96602C98.7028 7.87275 99.0653 7.75777 99.4529 7.63246C99.8404 7.5069 100.293 7.39192 100.791 7.27359C101.338 7.15758 101.89 7.07025 102.446 7.0116C103.136 6.93874 103.829 6.90386 104.523 6.90748C106.791 6.90748 108.356 7.56632 109.217 8.88478C109.733 9.67435 109.994 10.6375 110 11.7746V11.8565C109.996 12.596 109.886 13.408 109.669 14.2924L107.692 22.5458H103.372L105.291 14.4642C105.406 13.9622 105.499 13.4742 105.568 12.997C105.642 12.5838 105.642 12.1609 105.568 11.7483C105.496 11.4034 105.306 11.0949 105.029 10.8763C104.647 10.6251 104.191 10.5078 103.734 10.5425C103.159 10.5435 102.585 10.6024 102.022 10.7184L99.2017 22.5602H94.8557L98.3762 7.96602Z" fill="#E2E8F0"/>
</svg>
