<svg width="93" height="37" viewBox="0 0 93 37" fill="none" xmlns="http://www.w3.org/2000/svg">
<path fill-rule="evenodd" clip-rule="evenodd" d="M14.8966 0.207031C23.1243 0.207031 29.7931 6.87586 29.7931 15.1036C29.7931 23.3313 23.1243 30.0001 14.8966 30.0001C6.66883 30.0001 0 23.3313 0 15.1036C0 6.87586 6.66883 0.207031 14.8966 0.207031Z" fill="white"/>
<path d="M8.187 15.1025L8.19774 19.0415L11.5447 21.011V23.3171L6.23899 20.2053V13.9507L8.187 15.1025ZM8.187 11.1635V13.4589L6.23779 12.3058V10.0105L8.187 8.85742L10.1458 10.0105L8.187 11.1635ZM12.9424 10.0105L14.8916 8.85742L16.8504 10.0105L14.8916 11.1635L12.9424 10.0105Z" fill="#1E1E1E"/>
<path d="M9.5957 18.2251V15.919L11.5449 17.072V19.3674L9.5957 18.2251ZM12.9427 21.837L14.8919 22.99L16.8506 21.837V24.1324L14.8919 25.2854L12.9427 24.1324V21.837ZM19.6461 10.0105L21.5953 8.85742L23.5541 10.0105V12.3058L21.5953 13.4589V11.1635L19.6461 10.0105ZM21.5953 19.0415L21.606 15.1025L23.5553 13.9495V20.2041L18.2495 23.3159V21.0098L21.5953 19.0415Z" fill="#1E1E1E"/>
<path d="M20.1977 18.225L18.2485 19.3674V17.072L20.1977 15.9189V18.225Z" fill="black"/>
<path d="M20.1976 11.9803L20.2083 14.2864L16.8518 16.2559V20.2044L14.9026 21.3467L12.9534 20.2044V16.2559L9.5969 14.2864V11.9803L11.5545 10.8272L14.8907 12.8063L18.2472 10.8272L20.2059 11.9803H20.1976ZM9.5957 8.04247L14.8919 4.91992L20.1976 8.04247L18.2484 9.19552L14.8919 7.21647L11.5449 9.19552L9.5957 8.04247Z" fill="#1E1E1E"/>
<path d="M39.256 25V8.68H44.224C45.44 8.68 46.4 8.856 47.104 9.208C47.824 9.56 48.336 10.056 48.64 10.696C48.96 11.336 49.12 12.088 49.12 12.952V13.624C49.12 14.888 48.576 15.856 47.488 16.528C48.256 16.832 48.84 17.272 49.24 17.848C49.64 18.424 49.84 19.112 49.84 19.912V20.584C49.84 21.464 49.68 22.24 49.36 22.912C49.04 23.568 48.512 24.08 47.776 24.448C47.04 24.816 46.056 25 44.824 25H39.256ZM44.224 11.32H42.136V15.4H44.224C44.864 15.4 45.344 15.256 45.664 14.968C46 14.664 46.168 14.256 46.168 13.744V12.952C46.168 12.44 46 12.04 45.664 11.752C45.344 11.464 44.864 11.32 44.224 11.32ZM44.824 18.04H42.136V22.36H44.824C45.496 22.36 46.008 22.2 46.36 21.88C46.712 21.56 46.888 21.128 46.888 20.584V19.792C46.888 19.248 46.712 18.824 46.36 18.52C46.008 18.2 45.496 18.04 44.824 18.04ZM53.2951 25V8.68H55.9351C57.1991 10.328 58.3991 12.072 59.5351 13.912C60.6711 15.736 61.7031 17.616 62.6311 19.552L62.4151 14.68V8.68H65.1751V25H62.5351C61.5111 22.984 60.4471 20.96 59.3431 18.928C58.2551 16.88 57.0951 14.952 55.8631 13.144L56.0551 18.76V25H53.2951ZM69.6779 25V8.68H74.6459C75.8619 8.68 76.8219 8.856 77.5259 9.208C78.2459 9.56 78.7579 10.056 79.0619 10.696C79.3819 11.336 79.5419 12.088 79.5419 12.952V13.624C79.5419 14.888 78.9979 15.856 77.9099 16.528C78.6779 16.832 79.2619 17.272 79.6619 17.848C80.0619 18.424 80.2619 19.112 80.2619 19.912V20.584C80.2619 21.464 80.1019 22.24 79.7819 22.912C79.4619 23.568 78.9339 24.08 78.1979 24.448C77.4619 24.816 76.4779 25 75.2459 25H69.6779ZM74.6459 11.32H72.5579V15.4H74.6459C75.2859 15.4 75.7659 15.256 76.0859 14.968C76.4219 14.664 76.5899 14.256 76.5899 13.744V12.952C76.5899 12.44 76.4219 12.04 76.0859 11.752C75.7659 11.464 75.2859 11.32 74.6459 11.32ZM75.2459 18.04H72.5579V22.36H75.2459C75.9179 22.36 76.4299 22.2 76.7819 21.88C77.1339 21.56 77.3099 21.128 77.3099 20.584V19.792C77.3099 19.248 77.1339 18.824 76.7819 18.52C76.4299 18.2 75.9179 18.04 75.2459 18.04Z" fill="white"/>
</svg>
