<svg width="136" height="34" viewBox="0 0 136 34" fill="none" xmlns="http://www.w3.org/2000/svg">
<g clip-path="url(#clip0_16_126)">
<path d="M38.5583 19.5635C38.5563 19.6817 38.5075 19.7943 38.4226 19.8767C38.3376 19.9591 38.2235 20.0046 38.105 20.0033H29.7561C29.9702 22.0639 31.5191 23.9486 33.7102 23.9486C35.2087 23.9486 36.3168 23.3832 37.1479 22.1895C37.1866 22.1268 37.2402 22.0745 37.3039 22.0373C37.3675 22 37.4394 21.979 37.5131 21.9759C37.5681 21.9743 37.6229 21.984 37.674 22.0043C37.7251 22.0246 37.7716 22.0551 37.8105 22.0939C37.8494 22.1327 37.8799 22.179 37.9002 22.23C37.9206 22.2811 37.9303 22.3357 37.9287 22.3905C37.929 22.4663 37.9071 22.5406 37.8657 22.6041C37.022 24.0616 35.3472 24.7778 33.7102 24.7778C30.902 24.7778 28.8872 22.2649 28.8872 19.5886C28.8872 16.9123 30.8894 14.3994 33.7102 14.3994C36.5309 14.3994 38.5457 16.8872 38.5583 19.5635ZM37.6642 19.174C37.4879 17.1134 35.9013 15.2287 33.7102 15.2287C31.5191 15.2287 29.9702 17.1134 29.7561 19.174H37.6642Z" fill="#E2E8F0"/>
<path d="M48.708 14.6005C48.8173 14.6036 48.9211 14.6483 48.9984 14.7254C49.0756 14.8025 49.1204 14.9061 49.1236 15.0151C49.1252 15.07 49.1155 15.1246 49.0952 15.1756C49.0748 15.2266 49.0443 15.2729 49.0054 15.3118C48.9665 15.3506 48.92 15.3811 48.8689 15.4013C48.8178 15.4216 48.763 15.4313 48.708 15.4297H46.4666V24.2124C46.4656 24.3221 46.4215 24.427 46.3438 24.5045C46.266 24.5821 46.1609 24.6261 46.051 24.6271C45.9418 24.6239 45.8379 24.5792 45.7607 24.5021C45.6834 24.425 45.6386 24.3214 45.6355 24.2124V15.4297H43.4821C43.4271 15.4313 43.3724 15.4216 43.3213 15.4013C43.2701 15.3811 43.2237 15.3506 43.1848 15.3118C43.1459 15.2729 43.1153 15.2266 43.095 15.1756C43.0747 15.1246 43.065 15.07 43.0666 15.0151C43.0676 14.9054 43.1117 14.8005 43.1894 14.723C43.2671 14.6454 43.3722 14.6014 43.4821 14.6005H45.6355V11.3965C45.6357 11.2903 45.6738 11.1877 45.7431 11.1071C45.8123 11.0265 45.9081 10.9731 46.0132 10.9567C46.072 10.9489 46.1317 10.9539 46.1884 10.9713C46.2451 10.9886 46.2973 11.018 46.3415 11.0574C46.3858 11.0967 46.421 11.1452 46.4447 11.1993C46.4685 11.2535 46.4802 11.3122 46.4792 11.3713V14.6005H48.708Z" fill="#E2E8F0"/>
<path d="M62.3712 18.8469V24.1618C62.368 24.2707 62.3232 24.3744 62.246 24.4514C62.1687 24.5285 62.0648 24.5732 61.9556 24.5764C61.9006 24.5779 61.8459 24.5683 61.7948 24.548C61.7436 24.5277 61.6972 24.4972 61.6583 24.4584C61.6194 24.4196 61.5888 24.3733 61.5685 24.3223C61.5482 24.2712 61.5385 24.2166 61.5401 24.1618V18.8469C61.5401 17.0501 60.5201 15.266 58.5179 15.266C55.949 15.266 54.8408 17.5025 54.9919 19.8018C54.9919 19.8646 55.0171 20.1285 55.0171 20.1662V24.1492C55.0169 24.2554 54.9787 24.358 54.9095 24.4386C54.8402 24.5192 54.7444 24.5725 54.6393 24.5889C54.5806 24.5967 54.5208 24.5918 54.4642 24.5744C54.4075 24.557 54.3553 24.5277 54.311 24.4883C54.2668 24.4489 54.2316 24.4005 54.2078 24.3463C54.1841 24.2921 54.1723 24.2334 54.1734 24.1743V6.69686C54.1744 6.5872 54.2185 6.4823 54.2962 6.40476C54.3739 6.32721 54.4791 6.28321 54.589 6.28223C54.6982 6.28539 54.802 6.33009 54.8793 6.40717C54.9566 6.48426 55.0013 6.58789 55.0045 6.69686V16.5727C55.7223 15.2911 57.0067 14.4241 58.5053 14.4241C60.9734 14.4241 62.3712 16.5727 62.3712 18.8469Z" fill="#E2E8F0"/>
<path d="M77.3689 19.5635C77.3669 19.6817 77.3181 19.7943 77.2331 19.8767C77.1482 19.9591 77.034 20.0046 76.9155 20.0033H68.5666C68.7807 22.0639 70.3296 23.9486 72.5207 23.9486C74.0192 23.9486 75.1274 23.3832 75.9585 22.1895C75.9972 22.1268 76.0507 22.0745 76.1144 22.0373C76.1781 22 76.2499 21.979 76.3237 21.9759C76.3787 21.9743 76.4334 21.984 76.4845 22.0043C76.5357 22.0246 76.5821 22.0551 76.621 22.0939C76.6599 22.1327 76.6905 22.179 76.7108 22.23C76.7311 22.2811 76.7408 22.3357 76.7392 22.3905C76.7395 22.4663 76.7176 22.5406 76.6763 22.6041C75.8326 24.0616 74.1578 24.7778 72.5207 24.7778C69.7126 24.7778 67.6978 22.2649 67.6978 19.5886C67.6978 16.9123 69.7 14.3994 72.5207 14.3994C75.3163 14.3994 77.3563 16.8872 77.3689 19.5635ZM76.4622 19.174C76.2859 17.1134 74.6992 15.2287 72.5081 15.2287C70.317 15.2287 68.7681 17.1134 68.5541 19.174H76.4622Z" fill="#E2E8F0"/>
<path d="M87.6318 14.9901C87.6398 15.1016 87.6032 15.2118 87.5301 15.2966C87.457 15.3813 87.3532 15.4337 87.2415 15.4424C84.7859 15.8068 83.6778 17.8046 83.6778 20.129V24.112C83.6775 24.2182 83.6394 24.3208 83.5701 24.4014C83.5009 24.482 83.4051 24.5354 83.3 24.5518C83.2412 24.5596 83.1815 24.5546 83.1248 24.5373C83.0681 24.5199 83.0159 24.4905 82.9717 24.4511C82.9274 24.4118 82.8922 24.3633 82.8685 24.3092C82.8447 24.255 82.833 24.1963 82.8341 24.1372V15.0529C82.8343 14.9467 82.8724 14.8441 82.9417 14.7635C83.0109 14.6829 83.1067 14.6296 83.2118 14.6132C83.2706 14.6054 83.3303 14.6103 83.387 14.6277C83.4437 14.6451 83.4959 14.6744 83.5401 14.7138C83.5844 14.7532 83.6196 14.8016 83.6433 14.8558C83.6671 14.91 83.6788 14.9687 83.6778 15.0278V16.8748C84.3703 15.7063 85.7429 14.6006 87.1785 14.6006C87.3926 14.6006 87.6318 14.7514 87.6318 14.9901Z" fill="#E2E8F0"/>
<path d="M101.358 19.5635C101.356 19.6817 101.307 19.7943 101.222 19.8767C101.137 19.9591 101.023 20.0046 100.904 20.0033H92.5554C92.7695 22.0639 94.3184 23.9486 96.5095 23.9486C98.008 23.9486 99.1162 23.3832 99.9473 22.1895C99.986 22.1268 100.039 22.0745 100.103 22.0373C100.167 22 100.239 21.979 100.312 21.9759C100.367 21.9743 100.422 21.984 100.473 22.0043C100.524 22.0246 100.571 22.0551 100.61 22.0939C100.649 22.1327 100.679 22.179 100.7 22.23C100.72 22.2811 100.73 22.3357 100.728 22.3905C100.728 22.4663 100.706 22.5406 100.665 22.6041C99.8213 24.0616 98.1465 24.7778 96.5095 24.7778C93.7013 24.7778 91.6865 22.2649 91.6865 19.5886C91.6865 16.9123 93.6888 14.3994 96.5095 14.3994C99.3302 14.3994 101.345 16.8872 101.358 19.5635ZM100.464 19.174C100.287 17.1134 98.7006 15.2287 96.5095 15.2287C94.3184 15.2287 92.7695 17.1134 92.5554 19.174H100.464Z" fill="#E2E8F0"/>
<path d="M114.857 15.0906V24.2126C114.854 24.3215 114.809 24.4252 114.732 24.5023C114.655 24.5793 114.551 24.624 114.442 24.6272C114.387 24.6288 114.332 24.6191 114.281 24.5988C114.23 24.5785 114.183 24.5481 114.144 24.5092C114.105 24.4704 114.075 24.4241 114.055 24.3731C114.034 24.3221 114.025 24.2674 114.026 24.2126V22.4786C113.334 23.8482 112.112 24.8408 110.551 24.8408C108.07 24.8408 106.697 22.6922 106.697 20.418V15.0781C106.698 14.9684 106.742 14.8635 106.82 14.786C106.898 14.7084 107.003 14.6644 107.113 14.6634C107.222 14.6666 107.326 14.7113 107.403 14.7884C107.48 14.8654 107.525 14.9691 107.528 15.0781V20.418C107.528 22.2148 108.548 23.999 110.551 23.999C113.359 23.999 114.026 21.373 114.026 18.4705V15.0655C114.027 14.9983 114.044 14.9322 114.076 14.873C114.108 14.8137 114.153 14.7628 114.209 14.7247C114.264 14.6865 114.328 14.6622 114.395 14.6537C114.462 14.6453 114.53 14.6529 114.593 14.676C114.672 14.7127 114.739 14.7712 114.786 14.8447C114.833 14.9182 114.857 15.0035 114.857 15.0906Z" fill="#E2E8F0"/>
<path d="M136 18.8089V24.1489C135.997 24.2579 135.952 24.3615 135.875 24.4386C135.797 24.5157 135.694 24.5604 135.584 24.5635C135.529 24.5651 135.475 24.5554 135.423 24.5351C135.372 24.5149 135.326 24.4844 135.287 24.4455C135.248 24.4067 135.218 24.3604 135.197 24.3094C135.177 24.2584 135.167 24.2038 135.169 24.1489V18.8089C135.169 17.0121 134.149 15.2531 132.147 15.2531C129.628 15.2531 128.671 17.9419 128.671 20.0277V24.1489C128.668 24.2579 128.623 24.3615 128.546 24.4386C128.469 24.5157 128.365 24.5604 128.255 24.5635C128.2 24.5651 128.146 24.5554 128.095 24.5351C128.043 24.5149 127.997 24.4844 127.958 24.4455C127.919 24.4067 127.889 24.3604 127.868 24.3094C127.848 24.2584 127.838 24.2038 127.84 24.1489V18.8089C127.84 17.0121 126.82 15.2531 124.818 15.2531C122.274 15.2531 121.229 17.2509 121.317 19.9146C121.317 19.9774 121.342 20.0905 121.317 20.1282V24.1363C121.317 24.2425 121.279 24.3451 121.209 24.4257C121.14 24.5063 121.044 24.5596 120.939 24.5761C120.88 24.5839 120.821 24.5789 120.764 24.5615C120.707 24.5442 120.655 24.5148 120.611 24.4754C120.567 24.4361 120.531 24.3876 120.508 24.3334C120.484 24.2792 120.472 24.2206 120.473 24.1614V15.0521C120.473 14.9459 120.512 14.8433 120.581 14.7627C120.65 14.6821 120.746 14.6287 120.851 14.6123C120.91 14.6045 120.969 14.6095 121.026 14.6268C121.083 14.6442 121.135 14.6736 121.179 14.713C121.224 14.7523 121.259 14.8008 121.282 14.8549C121.306 14.9091 121.318 14.9678 121.317 15.0269V16.5473C122.035 15.2657 123.319 14.4238 124.818 14.4238C126.518 14.4238 127.84 15.5044 128.381 17.075C129.074 15.517 130.421 14.4238 132.147 14.4238C134.602 14.4238 136 16.5473 136 18.8089Z" fill="#E2E8F0"/>
<path opacity="0.6" d="M10.4519 12.5771L0 17.314L10.4519 23.4833L20.9163 17.314L10.4519 12.5771Z" fill="black"/>
<path opacity="0.45" d="M0 17.3141L10.4519 23.4834V0L0 17.3141Z" fill="#E2E8F0"/>
<path opacity="0.8" d="M10.4517 0V23.4834L20.9161 17.3141L10.4517 0Z" fill="#E2E8F0"/>
<path opacity="0.45" d="M0 19.2998L10.4519 34.0005V25.4565L0 19.2998Z" fill="#E2E8F0"/>
<path opacity="0.8" d="M10.4517 25.4565V34.0005L20.9161 19.2998L10.4517 25.4565Z" fill="#E2E8F0"/>
</g>
<defs>
<clipPath id="clip0_16_126">
<rect width="136" height="34" fill="white"/>
</clipPath>
</defs>
</svg>
