<svg width="85" height="24" viewBox="0 0 85 24" fill="none" xmlns="http://www.w3.org/2000/svg">
<path d="M12 0C5.37313 0 0 5.37313 0 12C0 18.6269 5.37313 24 12 24C18.6269 24 24 18.6269 24 12C23.9862 5.37313 18.6269 0 12 0ZM12.1791 12.3858L10.9392 16.6016H17.6073C17.8416 16.6016 17.9931 16.822 17.938 17.0425L17.3594 19.0402C17.3042 19.2331 17.1251 19.3708 16.9185 19.3708H6.72331L8.44547 13.5431L6.5442 14.1355L6.95752 12.7577L8.87256 12.1653L11.2974 3.98163C11.3525 3.78875 11.5316 3.65098 11.7382 3.65098H14.3146C14.5488 3.65098 14.7003 3.87141 14.6452 4.09185L12.5924 11.008L14.4937 10.4156L14.0804 11.8071L12.1791 12.3858Z" fill="#E2E8F0"/>
<path d="M30.7408 3H29.7933C29.6178 3 29.4949 3.08414 29.4598 3.22436L27.0032 18.7756C26.9856 18.9299 27.0383 19 27.2313 19H28.1789C28.3719 19 28.4772 18.9299 28.5123 18.7756L30.9865 3.22436C31.0391 3.07011 30.9339 3 30.7408 3Z" fill="#E2E8F0"/>
<path d="M34.8489 8H34.2721C34.1653 8 34.0906 8.06691 34.0692 8.21411L33.0012 18.7859C32.9905 18.9331 33.0546 19 33.1614 19H33.7381C33.8449 19 33.9197 18.9331 33.941 18.7859L34.9984 8.22749C35.0091 8.08029 34.9664 8 34.8489 8Z" fill="#E2E8F0"/>
<path d="M67.1252 8C66.2487 8 65.4891 8.29682 64.8464 8.90459C64.2037 9.51237 63.783 10.3039 63.5726 11.2933C63.3973 12.0989 63.2454 13.2297 63.1753 13.9929C63.0818 15.0247 63 15.8728 63 16.6926C63.0117 17.6961 63.2805 18.4876 63.783 19.0954C64.2972 19.689 64.9983 20 65.8865 20C66.7513 20 67.5109 19.7032 68.1536 19.0954C68.7963 18.5018 69.217 17.6961 69.4274 16.6926C69.5676 16.0283 69.7078 15.1378 69.8247 13.9929C69.9416 12.8057 70 11.9011 70 11.2792C70 10.2898 69.7429 9.49823 69.2287 8.90459C68.7028 8.29682 68.0017 8 67.1252 8ZM68.9015 12.9046C68.8431 13.47 68.808 13.8375 68.7963 13.9929C68.6795 15.1519 68.5743 15.9717 68.4808 16.4664C68.3406 17.2014 68.0367 17.7951 67.581 18.2474C67.1252 18.6996 66.5876 18.9117 65.9917 18.9117C65.384 18.9117 64.9048 18.6855 64.5426 18.2474C64.1803 17.8092 64.005 17.2297 64.005 16.5088C64.005 16.1272 64.0401 15.6466 64.0985 15.0813C64.1569 14.5159 64.192 14.1484 64.2037 13.9929C64.3205 12.8905 64.4257 12.0707 64.5192 11.5194C64.6594 10.7845 64.9633 10.1908 65.419 9.73852C65.8748 9.28622 66.4124 9.0742 67.0083 9.0742C67.616 9.0742 68.0952 9.30035 68.4574 9.72438C68.8197 10.1625 68.995 10.742 68.995 11.4629C68.995 11.8728 68.9599 12.3392 68.9015 12.9046Z" fill="#E2E8F0"/>
<path d="M75.7733 8H74.9242C74.764 8 74.6519 8.08029 74.6198 8.21411L73.0017 18.7859C72.9857 18.9331 73.0818 19 73.242 19H74.1072C74.2674 19 74.3795 18.9331 74.4116 18.7859L75.9976 8.22749C76.0136 8.08029 75.9496 8 75.7733 8Z" fill="#E2E8F0"/>
<path d="M84.3121 8.76591C83.8257 8.2509 83.142 8 82.248 8C81.6696 8 81.1437 8.10564 80.6572 8.33013C80.1708 8.55462 79.7632 8.88475 79.4214 9.33373C79.3557 9.38655 79.3294 9.37335 79.3294 9.29412L79.4346 8.36975C79.4477 8.23769 79.3951 8.15846 79.2637 8.15846H78.5537C78.4222 8.15846 78.3302 8.23769 78.3039 8.36975L77.0024 18.7887C76.9892 18.9208 77.0287 19 77.1733 19H77.8832C78.0147 19 78.1067 18.9208 78.1199 18.7887L79.0664 11.3145C79.2242 10.6146 79.5529 10.0468 80.0393 9.63745C80.5258 9.22809 81.1042 9.01681 81.7879 9.01681C82.4189 9.01681 82.9185 9.21489 83.2867 9.61104C83.6548 10.0072 83.8388 10.5354 83.8388 11.2089C83.8388 11.407 83.8257 11.5654 83.8125 11.6843L82.9054 18.7887C82.9054 18.8547 82.9054 18.8944 82.9317 18.934C82.9711 18.9736 83.0237 19 83.1026 19H83.8125C83.944 19 84.036 18.934 84.0492 18.7887L84.9563 11.5126C84.9826 11.2221 84.9958 11.0108 84.9958 10.8655C85.0352 9.96759 84.7986 9.26771 84.3121 8.76591Z" fill="#E2E8F0"/>
<path d="M57.3038 8C56.177 8 55.2003 8.31095 54.374 8.90459C53.5476 9.51237 53.0067 10.3039 52.7362 11.2933C52.5109 12.0989 52.3005 13.371 52.2254 13.9929C52.1202 14.8975 52 15.8728 52 16.6926C52.015 17.6961 52.3606 18.4876 53.0067 19.0954C53.6678 19.689 54.5693 20 55.7112 20C56.823 20 57.7997 19.7032 58.626 19.0954C59.4524 18.5018 59.9933 17.6961 60.2638 16.6926C60.2788 16.6078 60.3088 16.523 60.3239 16.4382C60.3389 16.3675 60.2788 16.311 60.2187 16.311H59.212C59.1519 16.311 59.0768 16.3392 59.0618 16.424C59.0618 16.4382 59.0467 16.4664 59.0467 16.4664C58.8664 17.2014 58.4758 17.7951 57.8898 18.2474C57.3038 18.6996 56.6127 18.9117 55.8464 18.9117C55.0651 18.9117 54.4491 18.6855 53.9833 18.2474C53.5175 17.8092 53.2922 17.2297 53.2922 16.5088C53.2922 16.1272 53.3372 15.6466 53.4124 15.0813C53.4725 14.6007 53.5326 14.1484 53.5476 13.9929C53.6978 12.8905 53.8331 12.0707 53.9533 11.5194C54.1336 10.7845 54.5242 10.1908 55.1102 9.73852C55.6962 9.28622 56.3873 9.0742 57.1536 9.0742C57.9199 9.0742 58.5509 9.28622 59.0167 9.72438C59.4825 10.1625 59.7078 10.742 59.7078 11.4629V11.477C59.7078 11.576 59.798 11.6608 59.9032 11.6608H60.8497C60.9249 11.6608 61 11.6042 61 11.5194C61 11.4205 61 11.3357 61 11.2509C61 10.2615 60.6694 9.46996 60.0083 8.87633C59.3322 8.29682 58.4457 8 57.3038 8Z" fill="#E2E8F0"/>
<path d="M50.1052 8.90459C49.5175 8.31095 48.7162 8 47.7145 8C46.7129 8 45.8447 8.29682 45.1102 8.90459C44.3756 9.51237 43.8948 10.3039 43.6544 11.2933C43.4541 12.0989 43.3606 12.8198 43.2003 13.9929C43.0534 15.1519 43 15.8728 43 16.6926C43.0134 17.6961 43.3205 18.4876 43.8948 19.0954C44.4825 19.689 45.2838 20 46.2988 20C47.2871 20 48.1553 19.7032 48.8898 19.0954C49.6244 18.5018 50.1052 17.6961 50.3456 16.6926C50.3589 16.6078 50.3856 16.523 50.399 16.4382C50.4124 16.3675 50.3723 16.311 50.3055 16.311H49.4107C49.3573 16.311 49.2905 16.3392 49.2771 16.424C49.2771 16.4382 49.2638 16.4664 49.2638 16.4664C49.1035 17.2014 48.7563 17.7951 48.2354 18.2474C47.7145 18.6996 47.1002 18.9117 46.419 18.9117C45.7245 18.9117 45.177 18.6855 44.7629 18.2474C44.3489 17.8092 44.1486 17.2297 44.1486 16.5088C44.1486 16.1696 44.1753 15.7456 44.2287 15.265L50.7195 13.1307C50.8531 13.0883 50.9065 13.0177 50.9332 12.8481C50.9733 12.4947 51 11.8869 51 11.265C50.9866 10.3746 50.6928 9.49823 50.1052 8.90459ZM49.8514 12.1131C49.8514 12.1837 49.8114 12.2403 49.7446 12.2544L44.3623 14.0212C44.3623 14.0071 44.3623 14.0071 44.3623 13.9929C44.4958 12.8905 44.616 12.0707 44.7229 11.5194C44.8831 10.7845 45.2304 10.1908 45.7513 9.73852C46.2721 9.28622 46.8865 9.0742 47.5676 9.0742C48.2621 9.0742 48.8097 9.30035 49.2237 9.72438C49.8781 10.4452 49.8915 11.1802 49.8514 12.1131Z" fill="#E2E8F0"/>
<path d="M39.8 18.5609C39.9165 18.4889 40.0446 18.5897 40.0213 18.748L39.9398 19.5254C39.9281 19.6262 39.8699 19.7125 39.8 19.7557C39.2407 20.0148 38.4601 20.13 37.8309 19.7845C37.1086 19.3814 36.9222 18.5033 37.027 17.4092L37.8542 9.07402L37.9708 7.87917L38.2504 5.23033C38.262 5.07198 38.3436 5 38.4717 5H39.0776C39.2174 5 39.2524 5.10077 39.2291 5.23033L38.8679 9.00204H40.8369C40.9534 9.00204 41 9.08841 41 9.23237L40.9417 9.77941C40.9301 9.86579 40.9184 9.90898 40.8835 9.96656C40.8485 10.0097 40.7786 10.0241 40.732 10.0241H38.7747L38.0873 16.8622C38.0174 17.5963 37.9358 18.2586 38.2387 18.6185C38.6349 19.0215 39.4038 18.7912 39.8 18.5609Z" fill="#E2E8F0"/>
</svg>
