<svg width="154" height="23" viewBox="0 0 154 23" fill="none" xmlns="http://www.w3.org/2000/svg">
<g clip-path="url(#clip0_16_102)">
<mask id="mask0_16_102" style="mask-type:luminance" maskUnits="userSpaceOnUse" x="0" y="0" width="154" height="23">
<path d="M154 0H0V23H154V0Z" fill="white"/>
</mask>
<g mask="url(#mask0_16_102)">
<path d="M25.8725 18.1342L21.6482 22.6862C21.5569 22.7851 21.4462 22.864 21.3232 22.918C21.2001 22.972 21.0673 23 20.9331 23.0001H0.908287C0.812781 23 0.719361 22.972 0.639467 22.9194C0.559575 22.8668 0.496678 22.7919 0.458476 22.704C0.420274 22.616 0.408426 22.5187 0.424384 22.4241C0.440342 22.3295 0.483409 22.2415 0.548318 22.1711L4.76782 17.6191C4.8592 17.5202 4.96983 17.4413 5.09289 17.3873C5.21592 17.3333 5.34873 17.3053 5.48299 17.3052H25.5078C25.6041 17.3032 25.699 17.3299 25.7802 17.3819C25.8615 17.434 25.9259 17.509 25.9648 17.5976C26.0039 17.6862 26.0158 17.7845 25.9993 17.8799C25.9829 17.9754 25.9388 18.0639 25.8725 18.1342ZM21.6482 8.9653C21.5565 8.86688 21.4458 8.7883 21.3228 8.73432C21.1999 8.68036 21.0672 8.65217 20.9331 8.65147H0.908287C0.812781 8.65152 0.719361 8.67955 0.639467 8.73216C0.559575 8.78475 0.496678 8.85962 0.458476 8.9476C0.420274 9.03557 0.408426 9.13282 0.424384 9.22745C0.440342 9.32209 0.483409 9.41002 0.548318 9.48043L4.76782 14.0349C4.85953 14.1333 4.97026 14.2119 5.09323 14.2659C5.21619 14.3198 5.34883 14.348 5.48299 14.3487H25.5078C25.6031 14.3482 25.6961 14.3198 25.7757 14.2671C25.8553 14.2143 25.9178 14.1394 25.9557 14.0515C25.9936 13.9637 26.0053 13.8666 25.9891 13.7722C25.9731 13.6777 25.9302 13.59 25.8653 13.5198L21.6482 8.9653ZM0.908287 5.69499H20.9331C21.0673 5.69487 21.2001 5.66691 21.3232 5.61291C21.4462 5.55893 21.5569 5.48001 21.6482 5.38113L25.8725 0.829063C25.9388 0.75875 25.9829 0.670294 25.9993 0.574822C26.0158 0.479351 26.0039 0.381129 25.9648 0.292516C25.9259 0.203904 25.8615 0.128861 25.7802 0.0768304C25.699 0.0247991 25.6041 -0.0018958 25.5078 0.000104746H5.48299C5.34873 0.000246781 5.21592 0.0281882 5.09289 0.082187C4.96983 0.136185 4.8592 0.215083 4.76782 0.313959L0.548318 4.86603C0.483409 4.93644 0.440342 5.02437 0.424384 5.11901C0.408426 5.21364 0.420274 5.31089 0.458476 5.39886C0.496678 5.48684 0.559575 5.56171 0.639467 5.6143C0.719361 5.66691 0.812781 5.69494 0.908287 5.69499Z" fill="#E2E8F0"/>
<path d="M50.2862 9.72746H39.5729V6.18163H53.0706V2.63579H39.5372C39.0747 2.63328 38.6165 2.72231 38.1884 2.8978C37.7602 3.07332 37.3704 3.33186 37.0419 3.65867C36.7132 3.98549 36.4517 4.37419 36.2724 4.80254C36.0931 5.23091 35.9995 5.69058 35.9971 6.15527V9.74902C35.999 10.2141 36.092 10.6743 36.271 11.1032C36.45 11.5321 36.7113 11.9214 37.04 12.2487C37.369 12.5761 37.7588 12.835 38.1872 13.0108C38.6155 13.1866 39.0744 13.2758 39.5372 13.2733H50.2647V16.8191H36.2521V20.365H50.2862C50.7486 20.3675 51.2068 20.2784 51.635 20.103C52.0631 19.9274 52.4529 19.6689 52.7814 19.3421C53.1101 19.0153 53.3717 18.6266 53.5509 18.1982C53.7302 17.7698 53.8239 17.3102 53.8263 16.8455V13.2517C53.8244 12.7866 53.7314 12.3265 53.5524 11.8975C53.3733 11.4686 53.112 11.0794 52.7833 10.752C52.4543 10.4247 52.0646 10.1658 51.6362 9.98995C51.2078 9.81414 50.7489 9.72494 50.2862 9.72746Z" fill="white"/>
<path d="M71.0402 2.63586H60.2864C59.8233 2.63207 59.3639 2.72017 58.9345 2.89511C58.5054 3.07006 58.1147 3.32837 57.785 3.65533C57.4551 3.98227 57.1929 4.37138 57.0131 4.80037C56.8331 5.22937 56.7392 5.68983 56.7368 6.15534V16.8455C56.7392 17.3111 56.8331 17.7715 57.0131 18.2005C57.1929 18.6295 57.4551 19.0186 57.785 19.3455C58.1147 19.6725 58.5054 19.9308 58.9345 20.1058C59.3639 20.2807 59.8233 20.3688 60.2864 20.365H71.0402C71.5027 20.3675 71.9609 20.2785 72.389 20.103C72.8172 19.9275 73.207 19.669 73.5355 19.3421C73.8642 19.0153 74.1257 18.6266 74.305 18.1983C74.4842 17.7699 74.5779 17.3102 74.5803 16.8455V6.15534C74.5779 5.69064 74.4842 5.23098 74.305 4.8026C74.1257 4.37425 73.8642 3.98555 73.5355 3.65874C73.207 3.33192 72.8172 3.07339 72.389 2.89787C71.9609 2.72237 71.5027 2.63334 71.0402 2.63586ZM71.014 16.8192H60.3127V6.18169H71.0092L71.014 16.8192Z" fill="white"/>
<path d="M108.706 2.636H98.2169C97.7544 2.63349 97.2962 2.72252 96.868 2.89801C96.4399 3.07353 96.0501 3.33207 95.7216 3.65888C95.3929 3.9857 95.1314 4.3744 94.9521 4.80275C94.7728 5.23112 94.6791 5.69079 94.6768 6.15548V20.3652H98.2526V14.5409H108.694V20.3652H112.27V6.15548C112.268 5.68875 112.173 5.22712 111.992 4.79717C111.812 4.36723 111.548 3.97748 111.217 3.65033C110.886 3.3232 110.493 3.06517 110.062 2.89109C109.631 2.71701 109.17 2.63033 108.706 2.636ZM108.68 10.9951H98.2383V6.18184H108.68V10.9951Z" fill="white"/>
<path d="M150.46 2.63579H139.971C139.508 2.63328 139.05 2.72231 138.622 2.8978C138.194 3.07332 137.804 3.33186 137.476 3.65867C137.147 3.98549 136.885 4.37419 136.706 4.80254C136.527 5.23091 136.433 5.69058 136.431 6.15527V20.365H140.007V14.5407H150.424V20.365H154V6.15527C153.998 5.69058 153.904 5.23091 153.725 4.80254C153.545 4.37419 153.284 3.98549 152.955 3.65867C152.626 3.33186 152.237 3.07332 151.809 2.8978C151.381 2.72231 150.922 2.63328 150.46 2.63579ZM150.424 10.9949H139.983V6.18163H150.424V10.9949Z" fill="white"/>
<path d="M129.684 16.8191H128.254L123.141 4.12119C122.965 3.68311 122.664 3.30766 122.275 3.04302C121.886 2.77835 121.427 2.63654 120.957 2.63577H117.784C117.475 2.63419 117.17 2.69368 116.884 2.81081C116.599 2.92797 116.339 3.10047 116.12 3.31849C115.901 3.53653 115.727 3.79579 115.607 4.08151C115.488 4.36722 115.425 4.67379 115.424 4.98369V20.3649H119V6.18161H120.43L125.541 18.8795C125.719 19.3168 126.023 19.6907 126.414 19.9536C126.804 20.2164 127.264 20.3563 127.734 20.3554H130.907C131.216 20.3569 131.521 20.2975 131.807 20.1803C132.092 20.0632 132.352 19.8907 132.571 19.6726C132.79 19.4546 132.965 19.1953 133.084 18.9096C133.203 18.6239 133.266 18.3174 133.267 18.0074V2.63577H129.684V16.8191Z" fill="white"/>
<path d="M81.3151 2.63574H77.7393V16.8454C77.7416 17.3112 77.8358 17.7718 78.0158 18.2009C78.1958 18.6301 78.4582 19.0193 78.7882 19.3463C79.1181 19.6733 79.5093 19.9315 79.9386 20.1063C80.3682 20.2811 80.8278 20.369 81.2913 20.3649H92.0188V16.8191H81.3151V2.63574Z" fill="white"/>
</g>
</g>
<defs>
<clipPath id="clip0_16_102">
<rect width="154" height="23" fill="white"/>
</clipPath>
</defs>
</svg>
