<svg width="113" height="25" viewBox="0 0 113 25" fill="none" xmlns="http://www.w3.org/2000/svg">
<path fill-rule="evenodd" clip-rule="evenodd" d="M22.8735 1.11787L27.979 11.6845C27.9984 11.7238 28.0046 11.7682 27.9966 11.8112C27.9886 11.8542 27.9668 11.8935 27.9345 11.9235L14.1456 24.9423C14.1064 24.9793 14.0543 25 14 25C13.9457 25 13.8936 24.9793 13.8544 24.9423L0.0655354 11.9243C0.0332007 11.8943 0.0114359 11.855 0.00342074 11.812C-0.00459442 11.769 0.00155987 11.7246 0.020988 11.6853L5.12654 1.11869C5.14302 1.0832 5.16951 1.05314 5.20287 1.03209C5.23622 1.01105 5.27502 0.999913 5.31463 1.00002H22.6837C22.7235 0.999528 22.7626 1.0104 22.7963 1.03131C22.8299 1.05222 22.8567 1.08229 22.8735 1.11787Z" fill="#E2E8F0"/>
<path fill-rule="evenodd" clip-rule="evenodd" d="M12.7705 13.0633C12.8671 13.0702 13.3662 13.0988 14.4795 13.0988C15.3649 13.0988 15.9936 13.0733 16.2142 13.0633C19.6361 12.9191 22.1902 12.3485 22.1902 11.6653C22.1902 10.9821 19.6361 10.4123 16.2142 10.2658V12.495C15.9904 12.5104 15.3496 12.5467 14.4642 12.5467C13.4016 12.5467 12.8695 12.5042 12.7738 12.4958V10.2673C9.35911 10.413 6.81059 10.9837 6.81059 11.6653C6.81059 12.3469 9.3583 12.9175 12.7738 13.0625L12.7705 13.0633ZM12.7705 10.0368V8.04195H8.00516V5H20.9795V8.04195H16.215V10.036C20.0876 10.2064 23 10.9412 23 11.8218C23 12.7024 20.0876 13.4365 16.215 13.6077V20H12.7713V13.6054C8.90752 13.4349 6 12.7009 6 11.8211C6 10.9412 8.90511 10.2072 12.7713 10.036L12.7705 10.0368Z" fill="#1E1E1E"/>
<path d="M33.7102 6.99006V4.45455H45.6562V6.99006H41.2031V19H38.1634V6.99006H33.7102ZM47.6236 19V4.45455H57.4247V6.99006H50.6989V10.456H56.9205V12.9915H50.6989V16.4645H57.4531V19H47.6236ZM59.3157 6.99006V4.45455H71.2617V6.99006H66.8086V19H63.7688V6.99006H59.3157ZM73.229 19V4.45455H76.3043V10.456H82.5472V4.45455H85.6154V19H82.5472V12.9915H76.3043V19H73.229ZM88.1509 19V4.45455H97.9521V6.99006H91.2262V10.456H97.4478V12.9915H91.2262V16.4645H97.9805V19H88.1509ZM100.397 19V4.45455H106.136C107.234 4.45455 108.172 4.65104 108.948 5.04403C109.729 5.43229 110.324 5.9839 110.731 6.69886C111.143 7.40909 111.349 8.24479 111.349 9.20597C111.349 10.1719 111.14 11.0028 110.724 11.6989C110.307 12.3902 109.703 12.9205 108.913 13.2898C108.127 13.6591 107.175 13.8438 106.058 13.8438H102.215V11.3722H105.56C106.147 11.3722 106.635 11.2917 107.023 11.1307C107.412 10.9697 107.701 10.7282 107.89 10.4062C108.084 10.0843 108.181 9.68419 108.181 9.20597C108.181 8.72301 108.084 8.31581 107.89 7.98438C107.701 7.65294 107.409 7.40199 107.016 7.23153C106.628 7.05634 106.138 6.96875 105.546 6.96875H103.472V19H100.397ZM108.252 12.3807L111.867 19H108.472L104.935 12.3807H108.252Z" fill="white"/>
</svg>
