<svg width="122" height="31" viewBox="0 0 122 31" fill="none" xmlns="http://www.w3.org/2000/svg">
<path d="M15.5 31C24.0896 31 31 24.0896 31 15.5C31 6.91037 24.0896 0 15.5 0C6.91037 0 0 6.91037 0 15.5C0 24.0896 6.91037 31 15.5 31Z" fill="#E2E8F0"/>
<path d="M19.375 17.7832C19.375 15.5322 18.1604 14.7604 15.7313 14.4389C13.9962 14.1816 13.6492 13.6671 13.6492 12.7666C13.6492 11.8661 14.2276 11.2874 15.3843 11.2874C16.4254 11.2874 17.0038 11.6733 17.2929 12.638C17.3508 12.8309 17.5243 12.9595 17.6978 12.9595H18.6231C18.8545 12.9595 19.028 12.7666 19.028 12.5094V12.4451C18.7966 11.0301 17.7555 9.93677 16.4254 9.80819V8.26462C16.4254 8.00731 16.2518 7.81437 15.9627 7.75H15.0952C14.8638 7.75 14.6903 7.94295 14.6324 8.26462V9.74382C12.8973 10.0011 11.7985 11.2874 11.7985 12.8953C11.7985 15.0177 12.9552 15.8537 15.3843 16.1754C17.0038 16.4969 17.5243 16.8828 17.5243 17.9119C17.5243 18.941 16.7145 19.6484 15.6157 19.6484C14.1119 19.6484 13.5913 18.9408 13.4178 17.9761C13.3601 17.7189 13.1866 17.5902 13.0131 17.5902H12.0298C11.7985 17.5902 11.625 17.7832 11.625 18.0405V18.1048C11.8563 19.7126 12.7817 20.8703 14.6903 21.192V22.7355C14.6903 22.9927 14.8638 23.1856 15.1529 23.25H16.0205C16.2518 23.25 16.4254 23.0571 16.4832 22.7355V21.192C18.2183 20.8703 19.375 19.5197 19.375 17.7832Z" fill="#1E1E1E"/>
<path d="M12.2152 25.031C7.19129 23.2541 4.61489 17.7328 6.48284 12.846C7.44897 10.1805 9.57446 8.14973 12.2152 7.19778C12.4728 7.0709 12.6016 6.88051 12.6016 6.56309V5.67465C12.6016 5.42075 12.4728 5.23035 12.2152 5.16699C12.1507 5.16699 12.0219 5.16699 11.9575 5.23035C5.83871 7.13426 2.48941 13.5442 4.42166 19.5732C5.58102 23.1271 8.35064 25.8561 11.9575 26.9984C12.2152 27.1253 12.4728 26.9984 12.5372 26.7445C12.6016 26.6812 12.6016 26.6177 12.6016 26.4908V25.6022C12.6016 25.4118 12.4084 25.1581 12.2152 25.031ZM19.0425 5.23035C18.7848 5.10348 18.5272 5.23035 18.4628 5.48426C18.3984 5.54777 18.3984 5.61114 18.3984 5.73817V6.62661C18.3984 6.88051 18.5916 7.13426 18.7848 7.26129C23.8087 9.03818 26.3851 14.5595 24.5172 19.4463C23.551 22.1118 21.4255 24.1426 18.7848 25.0945C18.5272 25.2214 18.3984 25.4118 18.3984 25.7292V26.6177C18.3984 26.8716 18.5272 27.062 18.7848 27.1253C18.8493 27.1253 18.9781 27.1253 19.0425 27.062C25.1613 25.1581 28.5106 18.7481 26.5783 12.7191C25.419 9.10169 22.5849 6.3727 19.0425 5.23035Z" fill="#1E1E1E"/>
<path d="M50.1761 10.9091H51.7614V19.5767C51.7614 20.4716 51.5504 21.2706 51.1286 21.9737C50.7109 22.6726 50.1207 23.2244 49.358 23.6293C48.5952 24.0298 47.7003 24.2301 46.6733 24.2301C45.6463 24.2301 44.7514 24.0298 43.9886 23.6293C43.2259 23.2244 42.6335 22.6726 42.2116 21.9737C41.794 21.2706 41.5852 20.4716 41.5852 19.5767V10.9091H43.1705V19.4489C43.1705 20.0881 43.3111 20.657 43.5923 21.1555C43.8736 21.6499 44.2741 22.0398 44.794 22.3253C45.3182 22.6065 45.9446 22.7472 46.6733 22.7472C47.402 22.7472 48.0284 22.6065 48.5526 22.3253C49.0767 22.0398 49.4773 21.6499 49.7543 21.1555C50.0355 20.657 50.1761 20.0881 50.1761 19.4489V10.9091ZM62.0861 14.1818C62.0094 13.5341 61.6983 13.0312 61.1529 12.6733C60.6074 12.3153 59.9384 12.1364 59.1458 12.1364C58.5662 12.1364 58.0591 12.2301 57.6245 12.4176C57.1941 12.6051 56.8574 12.8629 56.6145 13.1911C56.3759 13.5192 56.2566 13.892 56.2566 14.3097C56.2566 14.6591 56.3397 14.9595 56.5059 15.2109C56.6763 15.4581 56.8936 15.6648 57.1578 15.831C57.4221 15.9929 57.699 16.1271 57.9888 16.2337C58.2786 16.3359 58.5449 16.419 58.7878 16.483L60.1174 16.8409C60.4583 16.9304 60.8375 17.054 61.2551 17.2116C61.677 17.3693 62.0797 17.5845 62.4632 17.8572C62.851 18.1257 63.1706 18.4709 63.4221 18.8928C63.6735 19.3146 63.7992 19.8324 63.7992 20.446C63.7992 21.1534 63.6138 21.7926 63.2431 22.3636C62.8766 22.9347 62.3397 23.3885 61.6323 23.7251C60.9292 24.0618 60.0748 24.2301 59.0691 24.2301C58.1316 24.2301 57.3198 24.0788 56.6337 23.7763C55.9519 23.4737 55.415 23.0518 55.0229 22.5107C54.6351 21.9695 54.4157 21.3409 54.3645 20.625H56.0009C56.0435 21.1193 56.2097 21.5284 56.4995 21.8523C56.7935 22.1719 57.1642 22.4105 57.6117 22.5682C58.0634 22.7216 58.5492 22.7983 59.0691 22.7983C59.6742 22.7983 60.2175 22.7003 60.699 22.5043C61.1806 22.304 61.562 22.027 61.8432 21.6733C62.1245 21.3153 62.2651 20.8977 62.2651 20.4205C62.2651 19.9858 62.1436 19.6321 61.9007 19.3594C61.6578 19.0866 61.3382 18.8651 60.9419 18.6946C60.5456 18.5241 60.1174 18.375 59.6571 18.2472L58.0463 17.7869C57.0236 17.4929 56.214 17.0732 55.6174 16.5277C55.0208 15.9822 54.7225 15.2685 54.7225 14.3864C54.7225 13.6534 54.9206 13.0142 55.3169 12.4688C55.7175 11.919 56.2544 11.4929 56.9277 11.1903C57.6053 10.8835 58.3617 10.7301 59.1969 10.7301C60.0407 10.7301 60.7907 10.8814 61.4469 11.1839C62.1032 11.4822 62.623 11.8913 63.0066 12.4112C63.3944 12.9311 63.5989 13.5213 63.6202 14.1818H62.0861ZM70.4453 24H66.4055V10.9091H70.6243C71.8942 10.9091 72.9808 11.1712 73.8842 11.6953C74.7876 12.2152 75.4801 12.9631 75.9616 13.9389C76.4432 14.9105 76.6839 16.0739 76.6839 17.429C76.6839 18.7926 76.4411 19.9666 75.9553 20.951C75.4695 21.9311 74.7621 22.6854 73.8331 23.2138C72.9041 23.7379 71.7749 24 70.4453 24ZM67.9908 22.5938H70.343C71.4254 22.5938 72.3224 22.3849 73.0341 21.9673C73.7457 21.5497 74.2763 20.9553 74.6257 20.1839C74.9751 19.4126 75.1499 18.4943 75.1499 17.429C75.1499 16.3722 74.9773 15.4624 74.6321 14.6996C74.2869 13.9325 73.7713 13.3445 73.0852 12.9354C72.3991 12.522 71.5447 12.3153 70.522 12.3153H67.9908V22.5938ZM89.8771 15H88.2919C88.1982 14.544 88.0341 14.1435 87.7997 13.7983C87.5696 13.4531 87.2884 13.1634 86.956 12.929C86.6278 12.6903 86.2635 12.5114 85.8629 12.392C85.4624 12.2727 85.0447 12.2131 84.6101 12.2131C83.8175 12.2131 83.0994 12.4134 82.456 12.8139C81.8168 13.2145 81.3075 13.8047 80.9283 14.5845C80.5533 15.3643 80.3658 16.321 80.3658 17.4545C80.3658 18.5881 80.5533 19.5447 80.9283 20.3246C81.3075 21.1044 81.8168 21.6946 82.456 22.0952C83.0994 22.4957 83.8175 22.696 84.6101 22.696C85.0447 22.696 85.4624 22.6364 85.8629 22.517C86.2635 22.3977 86.6278 22.2209 86.956 21.9865C87.2884 21.7479 87.5696 21.456 87.7997 21.1108C88.0341 20.7614 88.1982 20.3608 88.2919 19.9091H89.8771C89.7578 20.5781 89.5405 21.1768 89.2251 21.7053C88.9098 22.2337 88.5178 22.6832 88.049 23.054C87.5803 23.4205 87.054 23.6996 86.4702 23.8913C85.8906 24.0831 85.2706 24.179 84.6101 24.179C83.4936 24.179 82.5007 23.9062 81.6314 23.3608C80.7621 22.8153 80.0781 22.0398 79.5795 21.0341C79.081 20.0284 78.8317 18.8352 78.8317 17.4545C78.8317 16.0739 79.081 14.8807 79.5795 13.875C80.0781 12.8693 80.7621 12.0938 81.6314 11.5483C82.5007 11.0028 83.4936 10.7301 84.6101 10.7301C85.2706 10.7301 85.8906 10.826 86.4702 11.0178C87.054 11.2095 87.5803 11.4908 88.049 11.8615C88.5178 12.228 88.9098 12.6754 89.2251 13.2038C89.5405 13.728 89.7578 14.3267 89.8771 15ZM96.2228 24.2045C95.3365 24.2045 94.5588 23.9936 93.8897 23.5717C93.225 23.1499 92.7051 22.5597 92.3301 21.8011C91.9593 21.0426 91.774 20.1562 91.774 19.142C91.774 18.1193 91.9593 17.2266 92.3301 16.4638C92.7051 15.701 93.225 15.1087 93.8897 14.6868C94.5588 14.2649 95.3365 14.054 96.2228 14.054C97.1092 14.054 97.8848 14.2649 98.5495 14.6868C99.2186 15.1087 99.7385 15.701 100.109 16.4638C100.484 17.2266 100.672 18.1193 100.672 19.142C100.672 20.1562 100.484 21.0426 100.109 21.8011C99.7385 22.5597 99.2186 23.1499 98.5495 23.5717C97.8848 23.9936 97.1092 24.2045 96.2228 24.2045ZM96.2228 22.8494C96.8961 22.8494 97.4501 22.6768 97.8848 22.3317C98.3194 21.9865 98.6412 21.5327 98.85 20.9702C99.0588 20.4077 99.1632 19.7983 99.1632 19.142C99.1632 18.4858 99.0588 17.8743 98.85 17.3075C98.6412 16.7408 98.3194 16.2827 97.8848 15.9332C97.4501 15.5838 96.8961 15.4091 96.2228 15.4091C95.5495 15.4091 94.9956 15.5838 94.5609 15.9332C94.1262 16.2827 93.8045 16.7408 93.5957 17.3075C93.3869 17.8743 93.2825 18.4858 93.2825 19.142C93.2825 19.7983 93.3869 20.4077 93.5957 20.9702C93.8045 21.5327 94.1262 21.9865 94.5609 22.3317C94.9956 22.6768 95.5495 22.8494 96.2228 22.8494ZM102.974 24V14.1818H104.483V24H102.974ZM103.741 12.5455C103.447 12.5455 103.194 12.4453 102.981 12.245C102.772 12.0447 102.668 11.804 102.668 11.5227C102.668 11.2415 102.772 11.0007 102.981 10.8004C103.194 10.6001 103.447 10.5 103.741 10.5C104.036 10.5 104.287 10.6001 104.496 10.8004C104.709 11.0007 104.815 11.2415 104.815 11.5227C104.815 11.804 104.709 12.0447 104.496 12.245C104.287 12.4453 104.036 12.5455 103.741 12.5455ZM108.754 18.0938V24H107.246V14.1818H108.703V15.7159H108.831C109.061 15.2173 109.411 14.8168 109.879 14.5142C110.348 14.2074 110.953 14.054 111.695 14.054C112.36 14.054 112.941 14.1903 113.44 14.4631C113.938 14.7315 114.326 15.1406 114.603 15.6903C114.88 16.2358 115.019 16.9261 115.019 17.7614V24H113.51V17.8636C113.51 17.0923 113.31 16.4915 112.909 16.0611C112.509 15.6264 111.959 15.4091 111.26 15.4091C110.779 15.4091 110.348 15.5135 109.969 15.7223C109.594 15.9311 109.298 16.2358 109.08 16.6364C108.863 17.0369 108.754 17.5227 108.754 18.0938Z" fill="white"/>
</svg>
